<svg width="48" height="48" viewBox="0 0 48 48" fill="none" xmlns="http://www.w3.org/2000/svg">
<rect width="48" height="48" rx="24" fill="white"/>
<path d="M16.1032 33.9084C15.8842 33.9084 15.7503 33.811 15.7016 33.6164L9.0219 10.4015C8.9489 10.1338 9.0584 10 9.35041 10H11.7595C11.9785 10 12.1123 10.0973 12.161 10.292L16.3952 25.3671C16.5655 25.9268 16.7237 26.4986 16.8697 27.0826C17.0157 27.6423 17.1617 28.2142 17.3077 28.7982C17.478 29.3579 17.6362 29.9297 17.7822 30.5138H17.8187C18.0864 29.6621 18.3419 28.8225 18.5853 27.9952C18.8529 27.1678 19.1084 26.3404 19.3518 25.5131L22.4179 15.3292L21.1038 10.7665C21.0795 10.6449 21.0917 10.5475 21.1403 10.4745C21.2134 10.4015 21.3107 10.365 21.4324 10.365H23.9145C24.1335 10.365 24.2673 10.4745 24.316 10.6935L28.4406 25.8416C28.6596 26.6203 28.8665 27.399 29.0611 28.1777C29.2802 28.9564 29.4992 29.7351 29.7182 30.5138H29.7547C29.9007 29.9541 30.0467 29.3944 30.1927 28.8347C30.3387 28.275 30.4847 27.7153 30.6307 27.1556C30.7767 26.5959 30.9227 26.0363 31.0687 25.4766L35.1569 10.292C35.2055 10.0973 35.3394 10 35.5584 10H38.077C38.369 10 38.4785 10.1338 38.4055 10.4015L31.9813 33.6164C31.9326 33.811 31.7987 33.9084 31.5797 33.9084H28.1121C27.8931 33.9084 27.7593 33.811 27.7106 33.6164L25.2285 25.0386C24.9852 24.2355 24.754 23.4325 24.535 22.6295C24.316 21.8264 24.097 21.0234 23.878 20.2204H23.8414C23.5981 20.9991 23.3548 21.7899 23.1114 22.593C22.8924 23.3717 22.6612 24.1504 22.4179 24.9291L19.8263 33.6164C19.802 33.7137 19.7533 33.7867 19.6803 33.8354C19.6316 33.8841 19.5465 33.9084 19.4248 33.9084H16.1032Z" fill="#1B1B1B"/>
<path d="M23.6909 38.0897C21.7441 38.0897 20.1381 37.8099 18.8727 37.2502C17.6316 36.6662 16.7191 35.8631 16.1351 34.8411C15.5754 33.8191 15.3442 32.6388 15.4416 31.3005C15.4659 30.8624 15.6119 30.6434 15.8796 30.6434H18.1792C18.4712 30.6434 18.6172 30.8381 18.6172 31.2275C18.6172 32.7118 19.0552 33.7826 19.9312 34.4396C20.8073 35.0723 22.1456 35.3886 23.9464 35.3886C25.6741 35.3886 26.976 35.0844 27.852 34.4761C28.7524 33.8434 29.2026 32.8944 29.2026 31.629C29.2026 30.9963 29.0931 30.4609 28.8741 30.0229C28.6794 29.5606 28.3387 29.159 27.852 28.8184C27.3653 28.4777 26.7083 28.137 25.8809 27.7963L20.5152 25.5697C19.3959 25.1074 18.4833 24.5964 17.7776 24.0367C17.0963 23.4527 16.5974 22.7956 16.2811 22.0656C15.9891 21.3113 15.8431 20.4596 15.8431 19.5105C15.8674 17.4908 16.5366 15.9577 17.8506 14.9114C19.189 13.865 21.1236 13.3418 23.6544 13.3418C25.3821 13.3418 26.8786 13.5973 28.144 14.1083C29.4094 14.6193 30.3706 15.3615 31.0276 16.3349C31.6847 17.3083 31.9523 18.5007 31.8307 19.912C31.782 20.3744 31.6482 20.6056 31.4291 20.6056H29.0931C28.9714 20.6056 28.874 20.5569 28.801 20.4596C28.7524 20.3622 28.7402 20.1797 28.7645 19.912C28.8619 18.671 28.436 17.722 27.487 17.0649C26.5623 16.3836 25.2482 16.0429 23.5449 16.0429C22.0361 16.0429 20.8924 16.3106 20.1137 16.8459C19.3594 17.3813 18.97 18.2086 18.9457 19.328C18.9457 19.912 19.043 20.4231 19.2377 20.8611C19.4567 21.2991 19.8095 21.7006 20.2962 22.0656C20.8073 22.4306 21.5008 22.7956 22.3768 23.1607L27.6695 25.3872C28.7889 25.8496 29.6892 26.3606 30.3706 26.9203C31.052 27.48 31.5386 28.137 31.8307 28.8914C32.147 29.6214 32.3052 30.5096 32.3052 31.556C32.3052 33.6 31.6116 35.2061 30.2246 36.3741C28.8375 37.5179 26.6596 38.0897 23.6909 38.0897Z" fill="#5D5D5D"/>
</svg>
